<?xml version="1.0" standalone="no"?>
<!DOCTYPE svg PUBLIC "-//W3C//DTD SVG 20010904//EN" 
"http://www.w3.org/TR/2001/REC-SVG-20010904/DTD/svg10.dtd"> 
<svg xmlns="http://www.w3.org/2000/svg" xmlns:xlink="http://www.w3.org/1999/xlink" 
    width="27cm" height="19cm" viewBox="0 0 117000 82670 "> 
<title>SVG Picture created as 5-pin stereo jack to DIP-Front.svg </title>
<desc>Picture generated by wxSVG v0100 </desc>
<g style="fill:black; stroke:black; stroke-width:1">
</g>
<g style="fill:#000000; fill-opacity:0.0; 
  stroke:#000000; stroke-linecap:round; stroke-linejoin:round; stroke-opacity:1.0; stroke-opacity:1.0; stroke-width:150" 
   transform="translate(0 0) scale(1 1)">
<path d="M14173 18110 L21654 18110" /> 
<path d="M21654 12598 L21654 18110" /> 
<path d="M14173 12598 L21654 12598" /> 
<path d="M14173 18110 L14173 12598" /> 
</g>
<g style="fill:#000000; fill-opacity:0.0; 
  stroke:#000000; stroke-linecap:round; stroke-linejoin:round; stroke-opacity:1.0; stroke-opacity:1.0; stroke-width:236" 
   transform="translate(0 0) scale(1 1)">
<path d="M15316 17316 L15323 17323" /> 
<path d="M15316 14645 L15316 17316" /> 
<path d="M16261 17261 L16323 17323" /> 
<path d="M16261 13858 L16261 17261" /> 
<path d="M17323 17323 L17323 16142" /> 
<path d="M17245 13858 L18426 13858" /> 
<path d="M16929 14174 L17245 13858" /> 
<path d="M16929 15748 L16929 14174" /> 
<path d="M16929 15748 L17323 16142" /> 
<path d="M18323 17323 L18323 16205" /> 
<path d="M18323 16205 L19883 14645" /> 
<path d="M17717 14645 L18820 14645" /> 
<path d="M18820 14645 L19685 13780" /> 
<path d="M19685 13780 L20473 13780" /> 
<path d="M20473 13780 L20866 14173" /> 
<path d="M20866 15354 L20866 14173" /> 
<path d="M19323 16897 L20866 15354" /> 
<path d="M19323 17323 L19323 16897" /> 
</g>
<g style="fill:#000000; fill-opacity:1.0; 
  stroke:#000000; stroke-linecap:round; stroke-linejoin:round; stroke-opacity:1.0; stroke-opacity:1.0; stroke-width:39" 
   transform="translate(0 0) scale(1 1)">
<polygon style="fill-rule:evenodd; " 
points="15023,17623
15023,17023
15623,17023
15623,17623
" /> 
</g>
<g style="fill:#000000; fill-opacity:1.0; 
  stroke:#000000; stroke-linecap:round; stroke-linejoin:round; stroke-opacity:1.0; stroke-opacity:1.0; stroke-width:39" 
   transform="translate(0 0) scale(1 1)">
<ellipse cx="15323" cy="17323" rx="200" ry="200"  /> 
</g>
<g style="fill:#000000; fill-opacity:1.0; 
  stroke:#000000; stroke-linecap:round; stroke-linejoin:round; stroke-opacity:1.0; stroke-opacity:1.0; stroke-width:39" 
   transform="translate(0 0) scale(1 1)">
<ellipse cx="16323" cy="17323" rx="300" ry="300"  /> 
</g>
<g style="fill:#000000; fill-opacity:1.0; 
  stroke:#000000; stroke-linecap:round; stroke-linejoin:round; stroke-opacity:1.0; stroke-opacity:1.0; stroke-width:39" 
   transform="translate(0 0) scale(1 1)">
<ellipse cx="16323" cy="17323" rx="200" ry="200"  /> 
</g>
<g style="fill:#000000; fill-opacity:1.0; 
  stroke:#000000; stroke-linecap:round; stroke-linejoin:round; stroke-opacity:1.0; stroke-opacity:1.0; stroke-width:39" 
   transform="translate(0 0) scale(1 1)">
<ellipse cx="17323" cy="17323" rx="300" ry="300"  /> 
</g>
<g style="fill:#000000; fill-opacity:1.0; 
  stroke:#000000; stroke-linecap:round; stroke-linejoin:round; stroke-opacity:1.0; stroke-opacity:1.0; stroke-width:39" 
   transform="translate(0 0) scale(1 1)">
<ellipse cx="17323" cy="17323" rx="200" ry="200"  /> 
</g>
<g style="fill:#000000; fill-opacity:1.0; 
  stroke:#000000; stroke-linecap:round; stroke-linejoin:round; stroke-opacity:1.0; stroke-opacity:1.0; stroke-width:39" 
   transform="translate(0 0) scale(1 1)">
<ellipse cx="18323" cy="17323" rx="300" ry="300"  /> 
</g>
<g style="fill:#000000; fill-opacity:1.0; 
  stroke:#000000; stroke-linecap:round; stroke-linejoin:round; stroke-opacity:1.0; stroke-opacity:1.0; stroke-width:39" 
   transform="translate(0 0) scale(1 1)">
<ellipse cx="18323" cy="17323" rx="200" ry="200"  /> 
</g>
<g style="fill:#000000; fill-opacity:1.0; 
  stroke:#000000; stroke-linecap:round; stroke-linejoin:round; stroke-opacity:1.0; stroke-opacity:1.0; stroke-width:39" 
   transform="translate(0 0) scale(1 1)">
<ellipse cx="19323" cy="17323" rx="300" ry="300"  /> 
</g>
<g style="fill:#000000; fill-opacity:1.0; 
  stroke:#000000; stroke-linecap:round; stroke-linejoin:round; stroke-opacity:1.0; stroke-opacity:1.0; stroke-width:39" 
   transform="translate(0 0) scale(1 1)">
<ellipse cx="19323" cy="17323" rx="200" ry="200"  /> 
</g>
<g style="fill:#000000; fill-opacity:1.0; 
  stroke:#000000; stroke-linecap:round; stroke-linejoin:round; stroke-opacity:1.0; stroke-opacity:1.0; stroke-width:39" 
   transform="translate(0 0) scale(1 1)">
<polygon style="fill-rule:evenodd; " 
points="15513,15038
15119,15038
15119,14252
15513,14252
" /> 
</g>
<g style="fill:#000000; fill-opacity:1.0; 
  stroke:#000000; stroke-linecap:round; stroke-linejoin:round; stroke-opacity:1.0; stroke-opacity:1.0; stroke-width:39" 
   transform="translate(0 0) scale(1 1)">
<ellipse cx="15316" cy="14645" rx="160" ry="160"  /> 
</g>
<g style="fill:#000000; fill-opacity:1.0; 
  stroke:#000000; stroke-linecap:round; stroke-linejoin:round; stroke-opacity:1.0; stroke-opacity:1.0; stroke-width:39" 
   transform="translate(0 0) scale(1 1)">
<polygon style="fill-rule:evenodd; " 
points="16458,14251
16064,14251
16064,13465
16458,13465
" /> 
</g>
<g style="fill:#000000; fill-opacity:1.0; 
  stroke:#000000; stroke-linecap:round; stroke-linejoin:round; stroke-opacity:1.0; stroke-opacity:1.0; stroke-width:39" 
   transform="translate(0 0) scale(1 1)">
<ellipse cx="16261" cy="13858" rx="160" ry="160"  /> 
</g>
<g style="fill:#000000; fill-opacity:1.0; 
  stroke:#000000; stroke-linecap:round; stroke-linejoin:round; stroke-opacity:1.0; stroke-opacity:1.0; stroke-width:39" 
   transform="translate(0 0) scale(1 1)">
<polygon style="fill-rule:evenodd; " 
points="17914,15038
17520,15038
17520,14252
17914,14252
" /> 
</g>
<g style="fill:#000000; fill-opacity:1.0; 
  stroke:#000000; stroke-linecap:round; stroke-linejoin:round; stroke-opacity:1.0; stroke-opacity:1.0; stroke-width:39" 
   transform="translate(0 0) scale(1 1)">
<ellipse cx="17717" cy="14645" rx="160" ry="160"  /> 
</g>
<g style="fill:#000000; fill-opacity:1.0; 
  stroke:#000000; stroke-linecap:round; stroke-linejoin:round; stroke-opacity:1.0; stroke-opacity:1.0; stroke-width:39" 
   transform="translate(0 0) scale(1 1)">
<polygon style="fill-rule:evenodd; " 
points="18623,14251
18229,14251
18229,13465
18623,13465
" /> 
</g>
<g style="fill:#000000; fill-opacity:1.0; 
  stroke:#000000; stroke-linecap:round; stroke-linejoin:round; stroke-opacity:1.0; stroke-opacity:1.0; stroke-width:39" 
   transform="translate(0 0) scale(1 1)">
<ellipse cx="18426" cy="13858" rx="160" ry="160"  /> 
</g>
<g style="fill:#000000; fill-opacity:1.0; 
  stroke:#000000; stroke-linecap:round; stroke-linejoin:round; stroke-opacity:1.0; stroke-opacity:1.0; stroke-width:39" 
   transform="translate(0 0) scale(1 1)">
<polygon style="fill-rule:evenodd; " 
points="20080,15038
19686,15038
19686,14252
20080,14252
" /> 
</g>
<g style="fill:#000000; fill-opacity:1.0; 
  stroke:#000000; stroke-linecap:round; stroke-linejoin:round; stroke-opacity:1.0; stroke-opacity:1.0; stroke-width:39" 
   transform="translate(0 0) scale(1 1)">
<ellipse cx="19883" cy="14645" rx="160" ry="160"  /> 
</g> 
</svg> 
